<svg width="31" height="31" viewBox="0 0 31 31" fill="none"
    xmlns="http://www.w3.org/2000/svg">
    <path d="M21.448 16.392C21.448 16.392 20.604 17.14 18.916 18.636C17.228 20.124 16.14 21.096 15.652 21.552C15.212 21.936 14.84 21.98 14.536 21.684C14.232 21.388 14.268 21.032 14.644 20.616C15.612 19.544 16.54 18.568 17.428 17.688C18.308 16.808 18.748 16.368 18.748 16.368C18.748 16.368 18.304 15.908 17.416 14.988C16.528 14.06 15.604 13.056 14.644 11.976C14.26 11.56 14.224 11.208 14.536 10.92C14.848 10.632 15.224 10.684 15.664 11.076C16.16 11.524 17.248 12.524 18.928 14.076C20.608 15.62 21.448 16.392 21.448 16.392Z" fill="#4B4F5B"/>
    <rect x="-1" y="1" width="29" height="29" rx="14.5" transform="matrix(-1 0 0 1 29 0)" stroke="#535763" stroke-width="2"/>
</svg>
